<?xml version="1.0" standalone="no"?><!DOCTYPE svg PUBLIC "-//W3C//DTD SVG 1.1//EN" "http://www.w3.org/Graphics/SVG/1.1/DTD/svg11.dtd"><svg t="1603200373000" class="icon" viewBox="0 0 1024 1024" version="1.1" xmlns="http://www.w3.org/2000/svg" p-id="1765" xmlns:xlink="http://www.w3.org/1999/xlink" width="32" height="32"><defs><style type="text/css"></style></defs><path d="M686.08 1017.173H351.573c-20.48 0-37.546-17.066-37.546-37.546s17.066-37.547 37.546-37.547H686.08c20.48 0 37.547 17.067 37.547 37.547 3.413 20.48-13.654 37.546-37.547 37.546z m68.267-116.053H276.48c-20.48 0-37.547-17.067-37.547-37.547 0-20.48 17.067-37.546 37.547-37.546h477.867c20.48 0 37.546 17.066 37.546 37.546 3.414 17.067-13.653 37.547-37.546 37.547zM617.813 768c-13.653 0-30.72-10.24-37.546-23.893-6.827-20.48 0-44.374 20.48-51.2 78.506-34.134 133.12-112.64 133.12-197.974 0-119.466-95.574-215.04-215.04-215.04s-215.04 95.574-215.04 215.04c0 85.334 51.2 160.427 126.293 194.56 20.48 10.24 27.307 30.72 20.48 51.2-10.24 20.48-30.72 27.307-51.2 20.48-105.813-47.786-170.667-150.186-170.667-266.24 0-78.506 30.72-150.186 85.334-208.213 54.613-54.613 129.706-85.333 208.213-85.333s150.187 30.72 208.213 85.333c54.614 54.613 85.334 129.707 85.334 208.213 0 58.027-17.067 116.054-51.2 163.84-30.72 47.787-78.507 85.334-129.707 105.814C628.053 768 621.227 768 617.813 768z m-98.986-587.093c-20.48 0-37.547-17.067-37.547-37.547V40.96c0-20.48 17.067-37.547 37.547-37.547 20.48 0 37.546 17.067 37.546 37.547v102.4c3.414 20.48-13.653 37.547-37.546 37.547zM235.52 314.027c-10.24 0-23.893-6.827-30.72-13.654l-64.853-78.506c-13.654-17.067-13.654-40.96 3.413-58.027 17.067-13.653 40.96-10.24 54.613 6.827l64.854 78.506c13.653 17.067 10.24 40.96-3.414 54.614-6.826 6.826-13.653 10.24-23.893 10.24z m573.44-3.414c-10.24 0-17.067-3.413-23.893-10.24C768 286.72 768 262.827 781.653 245.76l64.854-78.507c13.653-17.066 37.546-17.066 54.613-3.413s17.067 37.547 3.413 54.613L839.68 296.96c-6.827 6.827-17.067 13.653-30.72 13.653z" p-id="1766" fill="#ff5777"></path><path d="M419.84 877.227c-20.48 0-37.547-17.067-37.547-37.547V730.453c0-20.48 17.067-37.546 37.547-37.546 20.48 0 37.547 17.066 37.547 37.546V839.68c3.413 20.48-13.654 37.547-37.547 37.547z m197.973 3.413c-20.48 0-37.546-17.067-37.546-37.547V733.867c0-20.48 17.066-37.547 37.546-37.547s37.547 17.067 37.547 37.547v109.226c0 20.48-17.067 37.547-37.547 37.547z m0 0" p-id="1767" fill="#ff5777"></path></svg>