<?xml version="1.0" standalone="no"?><!DOCTYPE svg PUBLIC "-//W3C//DTD SVG 1.1//EN" "http://www.w3.org/Graphics/SVG/1.1/DTD/svg11.dtd"><svg t="1603200180246" class="icon" viewBox="0 0 1024 1024" version="1.1" xmlns="http://www.w3.org/2000/svg" p-id="1036" width="32" height="32" xmlns:xlink="http://www.w3.org/1999/xlink"><defs><style type="text/css"></style></defs><path d="M901.12 508.587H119.467C54.613 508.587 0 453.973 0 389.12V163.84C0 98.987 54.613 44.373 119.467 44.373H901.12c64.853 0 119.467 54.614 119.467 119.467v221.867c0 68.266-51.2 122.88-119.467 122.88zM119.467 122.88c-20.48 0-40.96 17.067-40.96 40.96v221.867c0 20.48 17.066 40.96 40.96 40.96H901.12c20.48 0 40.96-17.067 40.96-40.96V163.84c0-20.48-17.067-40.96-40.96-40.96H119.467z m0 0" p-id="1037" fill="#ff5777"></path><path d="M675.84 262.827c0 20.48 10.24 37.546 27.307 47.786 17.066 10.24 37.546 10.24 54.613 0s27.307-27.306 27.307-47.786-10.24-37.547-27.307-47.787c-17.067-10.24-37.547-10.24-54.613 0-17.067 13.653-27.307 30.72-27.307 47.787zM983.04 716.8H78.507c-20.48 0-40.96-17.067-40.96-40.96 0-20.48 17.066-40.96 40.96-40.96h901.12c20.48 0 40.96 17.067 40.96 40.96 3.413 23.893-17.067 40.96-37.547 40.96z m0 228.693H78.507c-20.48 0-40.96-17.066-40.96-40.96 0-20.48 17.066-40.96 40.96-40.96h901.12c20.48 0 40.96 17.067 40.96 40.96 3.413 23.894-17.067 40.96-37.547 40.96z m0 0" p-id="1038" fill="#ff5777"></path></svg>