<?xml version="1.0" standalone="no"?><!DOCTYPE svg PUBLIC "-//W3C//DTD SVG 1.1//EN" "http://www.w3.org/Graphics/SVG/1.1/DTD/svg11.dtd"><svg t="1603200408689" class="icon" viewBox="0 0 1024 1024" version="1.1" xmlns="http://www.w3.org/2000/svg" p-id="1995" xmlns:xlink="http://www.w3.org/1999/xlink" width="32" height="32"><defs><style type="text/css"></style></defs><path d="M1013.76 375.467l-81.92-269.654c-13.653-40.96-51.2-68.266-95.573-68.266H163.84c-44.373 0-85.333 30.72-95.573 75.093L3.413 382.293c-6.826 30.72 0 61.44 17.067 85.334 10.24 13.653 20.48 20.48 34.133 27.306V870.4c0 64.853 61.44 119.467 136.534 119.467H829.44c75.093 0 136.533-54.614 136.533-119.467V491.52c13.654-6.827 23.894-17.067 30.72-27.307 20.48-27.306 27.307-58.026 17.067-88.746zM71.68 399.36l64.853-269.653c3.414-13.654 13.654-23.894 27.307-23.894h672.427c13.653 0 23.893 6.827 27.306 20.48l81.92 269.654c3.414 10.24 0 17.066-3.413 27.306-6.827 6.827-13.653 13.654-23.893 13.654h-819.2c-10.24 0-17.067-3.414-23.894-10.24-3.413-10.24-6.826-20.48-3.413-27.307z m54.613 471.04V505.173H266.24V921.6h-71.68c-37.547 0-68.267-23.893-68.267-51.2z m703.147 51.2H334.507V505.173h563.2V870.4c0 27.307-30.72 51.2-68.267 51.2z m0 0" p-id="1996" fill="#ff5777"></path></svg>